<svg xmlns="http://www.w3.org/2000/svg" shape-rendering="geometricPrecision" text-rendering="geometricPrecision" image-rendering="optimizeQuality" fill-rule="evenodd" clip-rule="evenodd" viewBox="0 0 512 512"><path fill="#D0232B" d="M256 0c141.385 0 256 114.615 256 256S397.385 512 256 512 0 397.385 0 256 114.615 0 256 0z"/><path fill="#fff" d="M237.665 323.44l-11.421-30.947s-18.499 20.644-46.225 20.644c-24.587 0-41.999-21.356-41.999-55.513 0-43.742 22.071-59.393 43.743-59.393 31.297 0 41.255 20.272 49.818 46.236l11.42 35.549c11.415 34.519 32.776 62.255 94.284 62.255 44.109 0 74.035-13.536 74.035-49.092 0-28.813-16.385-43.743-46.971-50.903l-22.748-4.969c-15.658-3.572-20.271-9.958-20.271-20.646 0-12.078 9.591-19.241 25.248-19.241 17.101 0 26.326 6.427 27.72 21.729l35.554-4.249c-2.854-32.042-24.926-45.205-61.21-45.205-32.041 0-63.344 12.079-63.344 50.908 0 24.211 11.765 39.488 41.26 46.597l24.21 5.704c18.128 4.255 24.205 11.764 24.205 22.079 0 13.162-12.801 18.501-37.006 18.501-35.924 0-50.908-18.874-59.4-44.832l-11.765-35.55c-14.868-46.291-38.712-63.351-86.026-63.351-52.313 0-80.096 33.067-80.096 89.312 0 54.056 27.726 83.243 77.608 83.243 40.165 0 59.393-18.874 59.393-18.874l-.016.006v.002z"/></svg>