<svg version="1.2" xmlns="http://www.w3.org/2000/svg" viewBox="0 0 1200 1200" width="1200" height="1200">
	<title>image</title>
	<style>
		.s0 { opacity: 1;fill: #e6e4e5 } 
		.s1 { fill: #2d70b6 } 
		.s2 { fill: #22478b } 
		.s3 { fill: #83c4e9 } 
		.s4 { fill: #60b1df } 
	</style>
	<g id="Background">
		<path id="Path 0" class="s0" d="m568.5 3.6c-2.8 0.2-11.5 0.8-19.5 1.4-8 0.6-22.8 2.2-33 3.6-10.2 1.3-27.3 4.2-38 6.4-10.7 2.2-27.8 6.2-38 9-10.2 2.8-25.3 7.3-33.5 10.1-8.3 2.8-21.5 7.7-29.5 10.9-8 3.2-19.2 7.9-25 10.5-5.8 2.6-16.4 7.7-23.5 11.2-7.1 3.6-18.2 9.5-24.5 13.1-6.3 3.5-18.3 10.8-26.5 16-8.3 5.2-20.6 13.6-27.5 18.5-6.9 5-17.8 13.2-24.3 18.4-6.4 5.1-17 14-23.4 19.7-6.5 5.6-18.5 17-26.7 25.2-8.2 8.2-19.7 20.3-25.5 26.9-5.8 6.6-15 17.6-20.4 24.5-5.5 6.9-14.1 18.3-19.2 25.5-5.1 7.1-13 19.1-17.7 26.5-4.7 7.4-11.4 18.7-15 25-3.6 6.3-9.5 17.4-13.1 24.5-3.5 7.1-8.6 17.7-11.2 23.5-2.6 5.8-7.1 16.4-10 23.5-2.9 7.1-7.8 20.4-10.9 29.5-3 9.1-7.8 24.8-10.6 35-2.8 10.2-6.8 27.3-9 38-2.2 10.7-5 27.8-6.4 38-1.3 10.2-3 25-3.8 33-0.8 8.9-1.3 27.9-1.2 49.5 0 25.4 0.5 39.8 1.7 52.5 1 9.6 2.7 23.8 3.8 31.5 1.1 7.7 3.4 21 5 29.5 1.7 8.5 4.8 22.7 7 31.5 2.3 8.8 6.1 22.5 8.6 30.5 2.4 8 6.5 20.1 9 27 2.5 6.9 7.3 19.3 10.8 27.5 3.5 8.3 8.5 19.7 11.3 25.5 2.7 5.8 8.2 16.6 12.2 24 4 7.4 10.2 18.5 13.8 24.5 3.6 6 10.6 17.1 15.5 24.5 4.9 7.4 12.8 18.7 17.5 25 4.7 6.3 12.4 16.2 17.1 22 4.7 5.8 12.2 14.5 16.6 19.5 4.4 5 12.5 13.7 18 19.4 5.5 5.7 15.6 15.6 22.5 21.9 6.9 6.4 17.4 15.7 23.5 20.7 6.1 5 16.6 13.4 23.5 18.6 6.9 5.2 17.9 13.1 24.5 17.5 6.6 4.5 19 12.3 27.5 17.4 8.5 5.2 22.2 12.9 30.5 17.1 8.2 4.3 21.1 10.6 28.5 14 7.4 3.3 20.7 8.9 29.5 12.4 8.8 3.4 23.9 8.8 33.5 12 9.6 3.1 25.1 7.6 34.5 10 9.4 2.4 21.5 5.2 27 6.4 5.5 1.1 15.2 2.9 21.5 4 6.3 1.1 18.9 2.9 28 4 9.1 1.1 23 2.5 31 3.1 8 0.6 27.3 1.1 43 1.1 16.7 0 36.4-0.7 47.5-1.6 10.5-0.8 26.9-2.7 36.5-4.1 9.6-1.3 24.2-3.8 32.5-5.5 8.2-1.6 23.1-5 33-7.5 9.9-2.6 26.5-7.4 37-10.9 10.5-3.4 26-9.1 34.5-12.5 8.5-3.5 22.2-9.4 30.5-13.2 8.2-3.8 21.3-10.4 29-14.5 7.7-4.2 19.6-10.9 26.5-15.1 6.9-4.1 17.7-11 24-15.2 6.3-4.2 17.8-12.4 25.5-18.2 7.7-5.7 19.4-15 26-20.5 6.6-5.6 17.9-15.7 25.2-22.4 7.3-6.8 18.9-18.5 25.9-25.9 6.9-7.4 17.2-18.9 22.7-25.5 5.6-6.6 14.8-18.3 20.5-26 5.8-7.7 14-19.2 18.2-25.5 4.2-6.3 10.8-16.7 14.7-23 3.8-6.3 10.6-18.3 15.1-26.5 4.4-8.3 11.2-21.8 15-30 3.8-8.3 10-22.6 13.7-32 3.7-9.4 9.3-24.9 12.5-34.5 3.2-9.6 7.8-25.6 10.4-35.5 2.5-9.9 5.9-24.8 7.5-33 1.7-8.3 4.2-22.9 5.5-32.5 1.4-9.6 3.3-26 4.1-36.5 0.9-11.2 1.6-30.7 1.6-47.5 0-15.7-0.5-35-1.1-43-0.6-8-1.7-20.1-2.6-27-0.8-6.9-2.6-19.4-3.9-27.8-1.4-8.3-3.6-20.5-5-26.9-1.4-6.5-3.7-16.3-5.1-21.8-1.4-5.5-4.6-17-7.1-25.5-2.5-8.5-7-22.3-10-30.5-3-8.3-8.4-22-12-30.5-3.6-8.5-10.7-23.8-15.8-34-5.1-10.2-13.2-25.3-18-33.5-4.8-8.3-13.3-21.8-18.8-30-5.5-8.3-14.4-20.8-19.8-28-5.3-7.2-14.6-18.8-20.5-26-6-7.2-21.4-23.6-34.4-36.6-12.9-13-29.6-28.7-37-34.9-7.4-6.3-19.8-16.1-27.5-21.9-7.7-5.7-21-15.1-29.5-20.7-8.5-5.7-22.3-14.2-30.5-18.9-8.3-4.8-22.9-12.6-32.5-17.4-9.6-4.8-24.3-11.6-32.5-15-8.3-3.5-21.8-8.8-30-11.8-8.3-3-21.8-7.5-30-9.9-8.3-2.5-20.2-5.8-26.5-7.4-6.3-1.6-19.4-4.5-29-6.4-9.6-1.9-24-4.4-32-5.6-8-1.1-21.5-2.7-30-3.5-8.8-0.9-29.1-1.7-47-1.9-17.3-0.2-33.8-0.2-36.5 0z"/>
		<path id="Path 1" class="s1" d="m227.5 970c4.4 4.4 8.2 8 8.5 8 0.3 0-3-3.6-7.2-8-4.2-4.4-8.1-8-8.5-8-0.4 0 2.8 3.6 7.2 8z"/>
		<path id="Path 2" class="s1" d="m965 970.8l-11.5 11.7c18.2-17.8 23.5-23.1 23.5-23.2 0-0.2-0.1-0.3-0.3-0.3-0.1 0-5.4 5.3-11.7 11.8z"/>
		<path id="Path 3" class="s2" d="m1088.5 711.6c-11.6 9.1-29.5 23-40 30.9-10.5 7.8-24.6 18.2-31.5 23.2-6.9 4.9-20.8 14.6-31 21.5-10.2 6.9-26.8 17.7-37 24-10.2 6.4-25.7 15.6-34.5 20.6-8.8 4.9-23.3 12.6-32.3 17.1-8.9 4.4-22.4 10.7-30 14-7.5 3.2-19.1 7.7-25.7 10-6.6 2.3-17.9 5.8-25 7.6-7.1 1.9-17 4.1-22 4.9-5 0.9-16 2-24.5 2.7-8.5 0.6-20.7 0.8-27 0.4-6.3-0.3-16.2-1.3-22-2.1-5.8-0.8-15.2-2.6-21-4-5.8-1.4-15.9-4.6-22.5-7.1-6.6-2.5-17.6-7.4-24.5-10.9-6.9-3.5-19.7-10.7-28.5-16-8.8-5.4-23-13.9-31.5-19.1-8.5-5.2-21.4-12.2-28.5-15.7-7.1-3.5-17.5-8.1-23-10.1-5.5-2-14.9-5-21-6.5-6.1-1.6-15.7-3.6-21.5-4.5-5.8-0.8-17.9-1.8-27-2.2-9.6-0.3-22.3-0.1-30.5 0.6-7.7 0.6-19.9 2.1-27 3.2-7.1 1-20.2 3.5-29 5.5-8.8 1.9-23.9 6.2-33.5 9.4-9.6 3.2-23.4 8.3-30.5 11.5-7.1 3.1-19.3 8.9-27 12.9-7.7 4-18.7 10.1-24.5 13.6-5.8 3.5-16.6 10.4-24 15.3-7.4 5-18.9 13.1-25.5 18-6.6 5-16.4 12.6-21.8 16.9-5.3 4.3-9.7 8-9.7 8.3 0 0.3 1 2 2.2 3.7 1.2 1.8 5.3 7.3 9.2 12.3 3.9 5 10.8 13.5 15.5 19 4.6 5.5 17.2 18.8 28 29.6 10.8 10.7 25.2 24.2 32.1 29.9 6.9 5.7 17.9 14.4 24.5 19.3 6.6 5 16.5 12 22 15.7 5.5 3.7 15.6 10.1 22.5 14.2 6.9 4.1 17.7 10.2 24 13.5 6.3 3.4 17.4 8.8 24.5 12.1 7.1 3.3 19.3 8.4 27 11.5 7.7 3 20.3 7.6 28 10.1 7.7 2.6 19.6 6.2 26.5 8 6.9 1.9 17.9 4.6 24.5 6.1 6.6 1.5 18.3 3.7 26 5 7.7 1.3 20.4 3.1 28.2 3.9 7.9 0.9 23.2 2.1 34 2.7 10.9 0.6 27.7 0.8 37.3 0.5 9.6-0.4 23.4-1.1 30.5-1.7 7.1-0.5 20.9-2.1 30.5-3.5 9.6-1.4 24-3.8 32-5.5 8-1.6 20.6-4.5 28-6.5 7.4-2 19.8-5.6 27.5-8.1 7.7-2.5 21.4-7.4 30.5-11 9.1-3.6 24.6-10.4 34.5-15.2 9.9-4.8 24.5-12.5 32.5-17 8-4.6 20.8-12.5 28.5-17.6 7.7-5.1 20.3-14.1 28-19.9 7.7-5.9 19.6-15.6 26.5-21.6 6.9-5.9 20.4-18.9 30.1-28.7 9.6-9.8 22.2-23.4 27.9-30.3 5.7-6.9 14.1-17.5 18.6-23.5 4.5-6 12.4-17.5 17.7-25.5 5.2-8 12.7-20.1 16.7-27 3.9-6.9 10.9-20.1 15.5-29.5 4.5-9.4 10.8-23.1 13.8-30.5 3.1-7.4 7.9-20.3 10.7-28.5 2.8-8.3 6.9-21.3 9.1-29 2.2-7.7 5.5-21.2 7.5-30 1.9-8.8 3.4-16.4 3.2-16.8-0.2-0.4-9.8 6.7-21.3 15.9z"/>
		<path id="Path 4" class="s3" d="m1119.4 602c0 8 0.2 11.4 0.3 7.5 0.2-3.9 0.2-10.4 0-14.5-0.1-4.1-0.3-1-0.3 7z"/>
		<path id="Path 5" class="s3" d="m918 571.7c3.6 0.2 9 0.2 12 0 3-0.2 0.1-0.3-6.5-0.3-6.6 0-9.1 0.1-5.5 0.3z"/>
		<path id="Path 6" class="s0" d="m1054 551.1c-1.4 0.6-10.2 3-19.5 5.4-9.3 2.4-16.2 4.4-15.3 4.4 1 0.1 9.6-1.9 19.1-4.3 9.4-2.5 18.3-4.9 19.7-5.5 2.1-0.8 2.2-1 0.5-1-1.1 0-3.1 0.5-4.5 1z"/>
		<path id="Path 7" class="s0" d="m714.5 501.3c8.8 4.6 25.2 13.4 36.5 19.7 11.3 6.2 27.3 14.6 35.5 18.6 8.3 4 20.4 9.3 27 11.9 6.6 2.6 17.4 6.3 24 8.2 6.6 1.8 17.4 4.5 24 5.8 6.6 1.3 18.1 3.1 25.5 3.9 9.2 1.1 21.4 1.5 38.5 1.4l25-0.1c-41.1-1.2-57.3-2-62.5-2.6-5.2-0.6-14.7-2-21-3.2-6.3-1.1-15.8-3.1-21-4.4-5.2-1.3-15.4-4.4-22.5-6.9-7.1-2.4-18.9-7-26-10.1-7.1-3.1-18.2-8.4-24.5-11.7-6.3-3.4-19.8-10.7-30-16.3-10.2-5.6-24-13-30.8-16.4-6.7-3.3-12.5-6.1-12.9-6.1-0.5 0 6.4 3.8 15.2 8.3z"/>
		<path id="Path 8" class="s0" d="m682 486.4c0.3 0.2 3.9 1.8 8 3.5 4.1 1.7 7.6 2.8 7.8 2.6 0.1-0.3-3.2-1.9-7.3-3.5-4.1-1.6-7.8-3-8.3-3-0.4 0-0.5 0.1-0.2 0.4z"/>
		<path id="Path 9" class="s0" d="m673.5 483.6c3.9 1.3 7.1 2.1 7.3 1.9 0.1-0.3-2.6-1.4-6-2.5-3.5-1.1-6.8-2-7.3-1.9-0.5 0 2.1 1.1 6 2.5z"/>
		<path id="Path 10" class="s0" d="m646.5 476.6c3.3 0.7 6.7 1.3 7.5 1.2 0.8 0-0.8-0.6-3.5-1.3-2.8-0.7-6.1-1.3-7.5-1.3-1.4 0 0.2 0.6 3.5 1.4z"/>
		<path id="Path 11" class="s0" d="m548 476c-5.8 1.1-15.9 3.1-22.5 4.6-6.6 1.4-18.8 4.6-27 6.9-8.3 2.4-20.6 6.4-27.5 8.8-6.9 2.5-18.1 6.7-25 9.5-6.9 2.8-17.4 7.3-23.5 10-6.1 2.7-15.7 7.2-21.5 10-5.8 2.7-17.9 8.9-27 13.7-9.1 4.9-23.7 12.9-32.5 18-8.8 5.1-23.9 14.2-33.5 20.2-9.6 6-24.5 15.6-33 21.3-8.5 5.7-21.6 14.6-29 19.8-7.4 5.2-23.8 17.2-36.5 26.7-12.7 9.5-31.1 23.6-41 31.5-9.9 7.9-24.6 19.9-32.8 26.7-8.1 6.8-14.7 12.5-14.7 12.8 0 0.3 3.7-2.6 8.2-6.3 4.6-3.8 16.2-13.1 25.8-20.8 9.6-7.7 21.3-16.9 26-20.5 4.7-3.6 16.6-12.6 26.5-20 9.9-7.4 25.2-18.6 34-24.9 8.8-6.2 26.6-18.4 39.5-27 12.9-8.5 31.1-20.2 40.5-25.9 9.4-5.8 25.8-15.3 36.5-21.3 10.7-6 28.9-15.6 40.5-21.3 11.6-5.7 26.4-12.6 33-15.5 6.6-2.9 17.9-7.5 25-10.2 7.1-2.8 17.7-6.6 23.5-8.5 5.8-1.9 15.9-4.9 22.5-6.8 6.6-1.9 17-4.5 23-5.9 6-1.4 16.4-3.4 23-4.5 6.6-1.1 13.1-2.2 14.5-2.4 1.8-0.3 1.5-0.4-1-0.5-1.9 0-8.2 0.8-14 1.8z"/>
		<path id="Path 12" class="s1" d="m576.5 473.7c-2.2 0.2-9.2 1-15.5 1.9-6.3 0.8-17.1 2.6-24 4-6.9 1.4-18.6 4.1-26 6-7.4 2-20.5 5.9-29 8.6-8.5 2.8-23.1 8.1-32.5 11.8-9.4 3.8-24.4 10.3-33.5 14.5-9.1 4.2-23.9 11.5-33 16.2-9.1 4.7-25.3 13.7-36 19.8-10.7 6.2-27.4 16.1-37 22.2-9.6 6-23.8 15.1-31.5 20.3-7.7 5.1-21.4 14.5-30.5 20.9-9.1 6.4-28 20.2-42 30.7-14 10.5-33.4 25.3-43 32.9-9.6 7.6-29.3 23.6-43.8 35.7-14.4 12-26.2 22-26.2 22.3 0 0.3 2.3 7.6 5.1 16.3 2.8 8.6 7.8 22.7 11.2 31.2 3.3 8.5 9.4 22.9 13.6 32 4.2 9.1 11.5 23.5 16.2 32 4.8 8.5 11.9 20.7 15.9 27 4 6.3 9.6 14.9 12.5 19 2.9 4.1 6.1 8.2 7.1 9 1.7 1.2 1.7 1.2 0.6 0-0.7-0.8-1.2-1.8-1.2-2.2 0-0.5 4.4-4.3 9.7-8.6 5.4-4.3 15.2-11.9 21.8-16.9 6.6-4.9 18.1-13 25.5-18 7.4-4.9 18.2-11.8 24-15.3 5.8-3.5 16.8-9.6 24.5-13.6 7.7-4 19.9-9.8 27-12.9 7.1-3.2 20.9-8.3 30.5-11.5 9.6-3.2 24.7-7.5 33.5-9.4 8.8-2 21.9-4.5 29-5.5 7.1-1.1 19.3-2.6 27-3.2 8.2-0.7 20.9-0.9 30.5-0.6 9.1 0.4 21.2 1.4 27 2.2 5.8 0.9 15.4 2.9 21.5 4.5 6.1 1.5 15.5 4.5 21 6.5 5.5 2 15.9 6.6 23 10.1 7.1 3.5 20 10.5 28.5 15.7 8.5 5.2 22.7 13.7 31.5 19.1 8.8 5.3 21.6 12.5 28.5 16 6.9 3.5 17.9 8.4 24.5 10.9 6.6 2.5 16.7 5.7 22.5 7.1 5.8 1.4 15.2 3.2 21 4 5.8 0.8 15.7 1.8 22 2.1 6.3 0.4 18.5 0.2 27-0.4 8.5-0.7 19.5-1.8 24.5-2.7 5-0.8 14.9-3 22-4.9 7.1-1.8 18.4-5.3 25-7.6 6.6-2.3 18.2-6.8 25.8-10 7.5-3.3 21-9.6 29.9-14 9-4.5 23.5-12.2 32.3-17.1 8.8-5 24.3-14.2 34.5-20.6 10.2-6.3 26.1-16.7 35.5-23 9.4-6.3 23.8-16.3 32-22.2 8.3-5.9 23.3-17 33.5-24.6 10.2-7.7 27.5-21.1 38.5-29.8 11-8.8 20.5-16 21.1-16 0.7-0.1 2.2-7.8 3.8-19.6 1.5-10.7 3.1-23.8 3.7-29 0.6-5.2 1.3-21.2 1.6-35.5 0.4-16.3 0.1-32.1-0.6-42.5-0.7-9.1-1.9-21.2-2.7-27-0.8-5.8-1.4-10.6-1.4-10.7 0-0.2-2.6 0.9-5.7 2.3-3.2 1.4-10.3 4.3-15.8 6.4-5.5 2.1-17 6-25.5 8.8-8.5 2.8-22.9 6.9-32 9.1-9.1 2.2-24.4 5.4-34 7-9.6 1.7-24.5 3.7-33 4.6-8.5 0.8-24.3 1.8-35 2.2-12 0.3-24.9 0.1-33.5-0.6-7.7-0.7-18.5-1.9-24-2.7-5.5-0.8-15.2-2.6-21.5-4-6.3-1.4-18-4.7-26-7.3-8-2.7-19.5-7-25.5-9.6-6-2.6-16-7.2-22-10.3-6-3-20.9-11-33-17.7-12.1-6.7-28.3-15.4-36-19.2-7.7-3.9-18-8.6-23-10.6-5-2-14-5.2-20-7.1-6-1.9-16-4.4-22-5.5-6-1.1-15-2.5-20-3.1-5-0.5-17.3-0.9-27.5-0.8-10.2 0.1-20.3 0.3-22.5 0.5z"/>
		<path id="Path 13" class="s2" d="m710.5 633.4c-3.9 0.7-9.5 2.1-12.5 3.1-3 1-8.6 3.3-12.5 5.3-3.9 1.9-9.7 5.3-13 7.7-3.3 2.3-8.7 7.1-12 10.6-3.3 3.6-7.8 9.1-9.9 12.4-2.2 3.3-5.5 9.4-7.4 13.5-1.9 4.1-4.3 10.9-5.4 15-1 4.1-2.3 11.9-2.8 17.3-0.7 6.3-0.7 13.1 0 19.5 0.5 5.3 1.8 13.1 2.9 17.2 1 4.1 2.9 10.2 4.2 13.5 1.4 3.3 4.3 9.4 6.7 13.5 2.3 4.1 7.4 11.2 11.2 15.8 3.9 4.5 10.6 11 14.9 14.5 4.3 3.4 11.9 8.3 16.7 10.9 4.9 2.5 12.5 5.7 16.9 7.1 4.4 1.4 12 3.1 17 3.7 5.5 0.8 12.3 1 17.5 0.5 4.7-0.4 12.2-1.8 16.8-3.1 4.5-1.3 11-3.8 14.5-5.5 3.4-1.7 8.9-5 12.2-7.4 3.3-2.3 8.7-7.1 12-10.6 3.3-3.6 7.8-9.1 9.9-12.4 2.2-3.3 5.4-9.1 7.2-13 1.8-3.9 4.2-10.6 5.3-15 1.2-4.4 2.6-12.3 3.2-17.5 0.7-6.5 0.6-12.8-0.1-20-0.6-5.8-1.9-13.9-3-18-1.1-4.1-3.1-10.4-4.5-14-1.4-3.6-4.2-9.4-6.1-13-2-3.6-5.9-9.6-8.8-13.4-2.8-3.8-8.2-9.8-12.1-13.4-3.9-3.5-9.2-7.9-12-9.7-2.7-1.8-8.8-5.2-13.5-7.4-4.7-2.2-12.1-5-16.5-6.1-4.6-1.2-12.6-2.3-19-2.5-6.9-0.3-13.6 0-18 0.9z"/>
		<path id="Path 14" class="s0" d="m570.5 473c-2.8 0.4 0.1 0.5 6.5 0.2 6.3-0.2 11.7-0.6 11.9-0.8 0.2-0.2-2.7-0.3-6.5-0.2-3.8 0-9.2 0.4-11.9 0.8z"/>
		<path id="Path 15" class="s3" d="m131.9 360.3c-1.8 3.4-5.8 11.8-8.9 18.7-3.2 6.9-8.2 18.8-11.3 26.5-3 7.7-7.6 20.3-10.1 28-2.6 7.7-6.7 21.6-9.1 31-2.4 9.4-5.5 22.6-6.9 29.5-1.4 6.9-3.5 18.8-4.6 26.5-1.1 7.7-2.7 21-3.5 29.5-0.9 8.5-1.8 25.2-2.1 37-0.4 12.5-0.2 29.3 0.5 40 0.6 10.2 1.8 24.4 2.7 31.5 0.8 7.1 2.4 18.4 3.5 25 1.1 6.6 3.1 17.4 4.5 24 1.4 6.6 3.7 16.3 5.1 21.5 2.1 8 2.3 9.8 1.2 11.5-0.7 1.1 2.5-1.4 7.2-5.5 4.6-4.1 9.2-8.4 10.1-9.7 1-1.3 2.2-2.2 2.6-2.1 0.4 0.2 2.3-1.3 4.1-3.2 1.8-1.9 3-2.8 2.6-2-0.4 0.8 0.5 0 1.9-1.8 1.4-1.7 3-3 3.6-2.7 0.5 0.3 1.3-0.1 1.7-0.8 0.6-0.8 0.3-1-0.7-0.4-0.8 0.5-0.4 0 1-1.1 1.4-1.1 2.9-2 3.5-1.9 0.6 0.1 0.9-0.4 0.7-1.1-0.1-0.6 0.8-1.7 2-2.4 1.3-0.7 2.7-1.3 3.3-1.3 0.6-0.1 0.9-0.6 0.7-1.3-0.1-0.7 0.6-1.6 1.5-2.1 1-0.5 2.2-0.9 2.8-1 0.6-0.1 1-0.5 1-1 0-0.6 0.4-1.5 1-2.1 0.6-0.6 1.9-1.2 3-1.4 1.1-0.1 2-0.7 2-1.2 0-0.5 0.4-1.5 0.8-2.2 0.4-0.6 1.4-1 2.2-0.7 0.8 0.3 1.3 0.2 1-0.3-0.2-0.4 0.4-1.5 1.5-2.5 1.1-0.9 2.6-1.4 3.2-1 0.8 0.5 1 0.4 0.6-0.2-0.4-0.6 0.1-1.8 1.2-2.8 1.1-0.9 2.6-1.4 3.2-1 0.7 0.3 1 0.2 0.5-0.3-0.4-0.5 0.1-1.7 1-2.7 1-1 2.1-1.8 2.5-1.7 0.5 0 0.5 0.6 0.1 1.2q-0.8 1.3 0.5 0.5c0.6-0.4 1-1 0.7-1.5-0.3-0.4 0.3-1.5 1.2-2.5 1-1 2.1-1.8 2.5-1.7 0.5 0 0.5 0.6 0.1 1.2-0.3 0.8-0.2 0.9 0.3 0.5 0.5-0.5 0.9-1.3 0.9-1.9 0-0.6 8.1-7.3 18-15 9.9-7.6 26.6-20.1 37-27.7 10.4-7.6 28.7-20.3 40.5-28.3 11.8-8 29.6-19.6 39.5-25.8 9.9-6.2 25.4-15.5 34.5-20.8 9.1-5.2 21.6-12.1 27.7-15.3 6.6-3.5 11.8-5.6 12.5-5.2 1 0.6 1 0.4 0.3-0.7-0.8-1.2-0.6-1.3 0.7-0.7 1.1 0.4 1.6 0.3 1.3-0.3-0.3-0.5 2.3-2.4 5.7-4.1 3.5-1.7 6.9-2.8 7.5-2.5 0.8 0.4 1 0.2 0.5-0.6-0.5-0.9-0.2-1 1-0.5q1.8 0.7 1.5-0.6c-0.1-0.6 0.8-1.2 1.9-1.2 1.2 0 1.9-0.4 1.5-1-0.3-0.6 0.1-0.7 1.1-0.2 1 0.4 1.6 0.4 1.3-0.1-0.2-0.4 2.2-2 5.3-3.6 3.8-1.9 6.2-2.6 7.2-2 1.2 0.7 1.3 0.6 0.5-0.6-0.8-1.2-0.6-1.3 0.7-0.7 1.1 0.4 1.6 0.3 1.3-0.3-0.3-0.5 0.7-1.5 2.2-2.1 1.7-0.7 3.4-0.8 4.3-0.3 1.2 0.7 1.3 0.6 0.5-0.6-0.8-1.2-0.6-1.3 0.7-0.7 1.1 0.4 1.6 0.3 1.3-0.3-0.3-0.5 0.7-1.5 2.2-2.1 1.7-0.7 3.4-0.8 4.3-0.3 1.1 0.7 1.3 0.5 0.7-0.4-0.4-0.7 0-1.4 1.3-1.7 1.1-0.3 2.6-0.2 3.2 0.2 1 0.6 1 0.4 0.3-0.7-0.8-1.2-0.6-1.3 0.7-0.7 1.1 0.4 1.6 0.3 1.3-0.3-0.3-0.6 0.4-1.2 1.5-1.5 1.1-0.3 2.6-0.2 3.2 0.2 1 0.6 1 0.4 0.3-0.7-0.8-1.2-0.6-1.3 1.2-0.7 1.4 0.4 2.1 0.3 1.8-0.3-0.3-0.6 0.4-1.2 1.5-1.5 1.1-0.3 2.6-0.2 3.2 0.2q1.3 0.8 0.5-0.5c-0.4-0.7 0-1.4 1.3-1.7 1.1-0.3 2.6-0.2 3.2 0.2 1 0.6 1 0.4 0.3-0.7-0.8-1.2-0.6-1.3 1.2-0.7 1.7 0.5 2.1 0.4 1.5-0.5-0.5-0.9-0.1-1 1.5-0.5 1.7 0.5 2.1 0.4 1.5-0.5-0.5-0.9-0.1-1 1.5-0.5 1.7 0.5 2.1 0.4 1.5-0.5-0.5-0.9-0.2-1 1-0.5 1.3 0.5 1.6 0.3 1-0.5-0.5-0.9-0.1-1 1.5-0.5 1.4 0.4 2.1 0.3 1.8-0.3-0.3-0.6 0.6-1.2 2-1.5 1.4-0.3 3.1-0.2 3.7 0.2 0.8 0.5 1 0.4 0.6-0.2-0.4-0.6 1.7-1.8 5-2.9 3.7-1.2 6.2-1.6 7.2-1 1.2 0.7 1.3 0.6 0.5-0.5-0.8-1.2-0.5-1.4 1.6-1 1.6 0.2 2.4 0 2-0.6-0.4-0.5 0.3-0.6 1.6-0.2 1.4 0.4 2.1 0.3 1.8-0.3-0.3-0.6 1.6-1.5 4.2-2 2.7-0.6 5.7-0.8 6.8-0.5 1.7 0.5 1.7 0.4 0.5-0.5-1.2-0.9-0.8-1 2-0.6q3.5 0.6 2-0.3c-1.1-0.7-0.4-1.1 2.7-1.5 2.4-0.3 4.9-0.3 5.5 0.1 0.9 0.6 1 0.4 0.3-0.7-0.8-1.2-0.4-1.3 2.5-0.7 2.6 0.5 3.1 0.4 2-0.4-1.1-0.8-0.5-0.9 2.5-0.5 3 0.4 3.6 0.3 2.5-0.5-1.1-0.8-0.5-0.9 2.5-0.5 2.9 0.4 3.6 0.3 2.5-0.5-1.1-0.8-0.6-1 2.1-0.7 2.2 0.2 3.4-0.1 3-0.7-0.4-0.5 0.9-0.6 3.4-0.2 2.9 0.5 3.6 0.4 2.5-0.4-1.1-0.8-0.2-0.9 3.5-0.5 3.6 0.3 4.6 0.2 3.5-0.6-1.1-0.7 0.1-0.8 4-0.4 4 0.4 5.1 0.3 4-0.5-1.1-0.8 0.3-0.9 5-0.6 3.6 0.3 5.7 0.2 4.8-0.2-1-0.3 9.5-0.6 23.1-0.6 13.7 0 24.4 0.3 23.8 0.7-0.7 0.4 1.5 0.5 4.8 0.2 4.5-0.4 5.6-0.3 4.5 0.5-1.1 0.9-0.4 0.9 3 0.4 3.4-0.5 4.3-0.4 3.7 0.5-0.5 0.9 0.3 1 3 0.5 2.4-0.4 3.6-0.3 3.2 0.2-0.4 0.6 0.6 0.8 2.5 0.6 1.8-0.3 2.8-0.1 2.5 0.5-0.4 0.5 0.5 0.7 2 0.5 1.8-0.4 2.4-0.1 1.8 0.7-0.5 0.9 0 1 2 0.5 2.1-0.5 2.6-0.4 2 0.5-0.5 0.9 0 1 2 0.5 2.1-0.5 2.6-0.4 2 0.5-0.5 0.8-0.1 1 1.3 0.7 1.1-0.3 2-0.1 2 0.5 0 0.6 0.9 0.7 2.2 0.3 1.7-0.5 2.1-0.4 1.5 0.5-0.5 0.9-0.1 1 1.5 0.5 1.7-0.5 2.1-0.4 1.5 0.5-0.5 0.9-0.1 1 1.5 0.5 1.7-0.5 2.1-0.4 1.5 0.5-0.5 0.9-0.1 1 1.5 0.5 1.7-0.5 2.1-0.4 1.5 0.5q-0.7 1.2 0.8 0.7c0.8-0.3 1.5-0.1 1.5 0.5 0 0.6 0.8 0.7 1.7 0.3 1.3-0.5 1.6-0.4 1 0.5-0.5 0.9-0.1 1 1.5 0.5 1.7-0.5 2.1-0.4 1.5 0.5-0.5 0.8-0.2 1 1 0.5 1.3-0.5 1.6-0.4 1 0.5-0.5 0.9-0.1 1 1.5 0.5 1.7-0.5 2.1-0.4 1.5 0.5-0.5 0.8-0.2 1 1 0.5 1.3-0.5 1.6-0.4 1 0.5-0.4 0.8-0.2 1 0.5 0.6 0.7-0.3 2 0.1 2.8 0.8 0.8 0.7 2.1 1.3 2.7 1.3 0.7 0 1.8 0.1 2.3 0.2 0.5 0.2 0.8 0.7 0.5 1.3-0.3 0.6 0.2 0.7 1.2 0.3 1.4-0.6 1.6-0.5 0.8 0.7-0.7 1.1-0.7 1.3 0.3 0.7 0.6-0.4 3.2 0.3 5.6 1.5 2.5 1.3 4.2 2.7 3.8 3.3-0.4 0.6-0.2 0.7 0.6 0.2 0.6-0.4 1.9-0.5 2.7-0.2 0.8 0.3 1.3 0.9 1 1.5-0.3 0.6 0.2 0.7 1.2 0.3 1.3-0.5 1.6-0.4 1 0.5-0.5 0.8-0.2 1 1 0.5 1.3-0.5 1.6-0.4 1 0.5-0.5 0.8-0.2 1 1 0.5 1.3-0.5 1.6-0.4 1 0.5-0.5 0.8-0.2 1 1 0.5 1.3-0.5 1.6-0.4 1 0.5-0.4 0.6-0.4 1.1 0 1 0.5-0.2 2.3 0.3 4 1 1.8 0.6 3.1 1.6 2.8 2.2-0.3 0.6 0.2 0.7 1.2 0.3 1.4-0.6 1.6-0.5 0.8 0.7-0.7 1.1-0.7 1.3 0.3 0.7 0.6-0.4 2.6 0.1 4.2 1 1.7 1 2.7 2.2 2.3 2.6-0.5 0.5 0.1 0.5 1.2 0 1.6-0.6 1.8-0.5 1 0.7-0.7 1.1-0.7 1.3 0.3 0.7 0.6-0.4 2.6 0.1 4.2 1 1.7 1 2.7 2.2 2.3 2.6-0.5 0.5 0.1 0.5 1.2 0 1.6-0.6 1.8-0.5 1 0.7-0.7 1.1-0.7 1.3 0.3 0.7 0.6-0.4 2.6 0.1 4.2 1 1.7 1 2.7 2.2 2.3 2.6-0.5 0.5 0.1 0.5 1.2 0 1.5-0.5 1.8-0.4 1.2 0.5-0.5 0.8-0.2 1 1 0.5 1.4-0.6 1.6-0.5 0.8 0.7-0.7 1.1-0.7 1.3 0.2 0.7 0.7-0.4 3.1 0.2 5.3 1.3 2.2 1.1 3.8 2.5 3.5 3-0.3 0.6 0.2 0.7 1.2 0.3 1.3-0.5 1.6-0.4 1 0.5-0.5 0.8-0.2 1 1 0.5 1.3-0.5 1.6-0.4 1 0.5-0.5 0.8-0.2 1 1 0.5 1.3-0.5 1.6-0.4 1 0.5-0.5 0.8-0.2 1 1 0.5 1.3-0.5 1.6-0.4 1 0.5-0.5 0.8-0.2 1 1 0.5 1.3-0.5 1.6-0.4 1 0.5-0.5 0.8-0.2 1 1 0.5 1.3-0.5 1.6-0.4 1 0.5-0.5 0.8-0.2 1 1 0.5 1.4-0.6 1.6-0.5 0.8 0.7-0.8 1.2-0.7 1.3 0.5 0.6 1-0.5 2.8-0.2 5.2 1 2.1 1.1 3.4 2.3 3 2.9-0.4 0.6-0.1 0.7 0.8 0.1 0.9-0.5 2.7-0.4 4.2 0.3 1.6 0.6 2.6 1.4 2.4 1.8-0.2 0.5 0.6 0.9 1.7 0.9 1.2 0.1 8.7 2.5 16.7 5.3 8 2.9 19 6.3 24.5 7.7 5.5 1.4 16.3 3.6 24 4.9 7.7 1.3 21 2.8 29.5 3.4 8.5 0.6 24.4 1.2 35.2 1.4 10.9 0.1 19-0.1 18-0.6-0.9-0.4 1.7-0.6 5.9-0.5 4.7 0.2 7.4-0.1 7-0.6-0.4-0.6 1.4-0.7 4.6-0.3 4 0.5 5.1 0.4 4.5-0.5-0.5-0.9 0.5-1.1 3.9-0.7 2.8 0.2 4.4 0 4-0.5-0.4-0.6 1-0.7 3.6-0.3 3.2 0.5 4.3 0.4 4.3-0.6 0-0.8 0.8-1 3-0.5 2.1 0.6 3 0.4 3-0.5 0-0.8 0.8-1 3-0.5 2.2 0.6 2.8 0.5 2.2-0.4-0.5-0.9 0.2-1 3-0.5 2.9 0.5 3.6 0.4 3-0.5-0.5-0.9 0.1-1 2.5-0.5 2.5 0.5 3.1 0.4 2.5-0.5-0.5-0.9 0.1-1 2.5-0.5 2.5 0.5 3.1 0.4 2.5-0.5-0.5-0.8 0.1-1.1 1.9-0.7 1.5 0.2 2.4 0 2-0.5-0.3-0.6 0.7-0.8 2.5-0.5 1.9 0.2 2.9 0 2.5-0.5-0.3-0.6 0.5-0.8 2-0.5 1.6 0.2 2.4 0 2-0.5-0.3-0.6 0.5-0.8 2-0.5 1.6 0.2 2.4 0 2-0.5-0.3-0.6 0.5-0.8 2-0.5 1.5 0.2 2.5 0.1 2.3-0.4-0.2-0.4 0.8-0.9 2.3-1.2 1.6-0.3 3.7-0.3 4.8 0 1.7 0.5 1.7 0.4 0.5-0.5-1.2-0.9-1-1.1 1.1-0.8 1.5 0.2 2.5 0.1 2.3-0.2-0.2-0.3 1.6-1.1 3.9-1.9 2.6-0.8 4.8-1 5.7-0.5 0.9 0.6 1.2 0.5 0.8-0.1-0.4-0.6 2.9-2.2 8-3.9 4.8-1.5 16.7-5.9 26.4-9.7 9.8-3.8 18-7.4 18.3-7.9 0.3-0.5-0.6-8.1-2-16.8-1.4-8.6-3.9-21.8-5.6-29.2-1.6-7.4-4.5-19.1-6.4-26-1.9-6.9-5.9-19.7-8.9-28.5-3-8.8-8.2-22.5-11.5-30.5-3.4-8-6.4-14.8-6.9-15.3-0.4-0.4-9.7-0.1-20.7 0.8-11 0.8-27.9 2-37.5 2.5-9.6 0.6-38 1.4-63 1.7-28.6 0.4-54.2 0.1-69-0.6-12.9-0.6-30.9-1.8-40-2.6-9.1-0.9-21.7-2.2-28-3.1-6.3-0.8-16.7-2.4-23-3.4-6.3-1.1-15.8-3-21-4.1-5.2-1.2-13.4-3.2-18.3-4.5l-8.7-2.4c-475.1 0-613-0.2-613-0.5 0-0.3 1.3-3.2 2.9-6.5 1.6-3.3 2.7-6 2.5-6-0.2 0-1.8 2.8-3.5 6.2z"/>
		<path id="Path 16" class="s0" d="m596 471.7c3 0.2 7.5 0.2 10 0 2.5-0.2 0-0.3-5.5-0.3-5.5 0-7.5 0.1-4.5 0.3z"/>
		<path id="Path 17" class="s3" d="m562.5 232c6.6 6.6 12.2 12 12.5 12 0.3 0-4.8-5.4-11.2-12-6.5-6.6-12.1-12-12.5-12-0.4 0 4.6 5.4 11.2 12z"/>
		<path id="Path 18" class="s3" d="m227.5 229.3l-11 11.2c17.4-17.1 22.5-22.1 22.5-22.3 0-0.1-0.1-0.2-0.3-0.2-0.1 0-5.2 5.1-11.2 11.2z"/>
		<path id="Path 19" class="s4" d="m370.5 137.6c-4.4 0.8-13.2 3-19.5 5-6.3 2-15.6 5.5-20.5 7.8-4.9 2.3-14.6 7.9-21.5 12.5-6.9 4.6-17.7 12.2-24 17-6.3 4.7-16.9 13-23.5 18.5-6.6 5.5-21.5 19.4-33.1 31-11.5 11.6-25.5 26.5-31 33.1-5.4 6.6-14 17.4-18.9 24-4.9 6.6-13 18.3-18 26-5 7.7-12.1 19.2-15.7 25.5-3.6 6.3-8.4 15.2-10.7 19.8-2.2 4.5-4.1 8.4-4.1 8.7 0 0.3 137.1 0.5 304.8 0.4h304.7c-16.3-5.9-26.2-10.1-32.5-13.3-6.3-3.2-17.8-9.9-25.5-15.1-7.7-5.1-18.7-13.1-24.5-17.8-5.8-4.6-15.5-12.8-21.5-18.2-6-5.4-22-20.7-35.5-34-13.5-13.2-33.1-32.4-43.5-42.5-10.5-10.2-23.7-22.6-29.5-27.6-5.8-5-15-12.6-20.5-16.9-5.5-4.3-15.4-11.4-22-15.7-6.6-4.4-16.9-10.3-23-13.3-6.1-3-16.4-7.2-23-9.4-6.6-2.2-16.3-4.7-21.5-5.6-5.7-0.9-15.3-1.5-24-1.4-8 0-18.1 0.7-22.5 1.5z"/>
		<path id="Path 20" class="s3" d="m390 135.7c3 0.2 7.5 0.2 10 0 2.5-0.2 0-0.3-5.5-0.3-5.5 0-7.5 0.1-4.5 0.3z"/>
	</g>
</svg>